<?xml version="1.0" encoding="UTF-8"?>
<svg id="_레이어_1" data-name="레이어_1" xmlns="http://www.w3.org/2000/svg" version="1.1" viewBox="0 0 82.49 83.27">
  <!-- Generator: Adobe Illustrator 29.6.0, SVG Export Plug-In . SVG Version: 2.1.1 Build 207)  -->
  <path d="M80.54,41.78c0,22.4-18.23,40.62-40.62,40.62-15.53,0-29.47-8.64-36.38-22.57-.77-1.55-.14-3.42,1.41-4.19,1.54-.75,3.42-.14,4.19,1.41,5.85,11.78,17.65,19.1,30.79,19.1,18.95,0,34.38-15.42,34.38-34.38,0-18.96-15.42-34.38-34.38-34.38-9.65,0-18.69,4.07-25.14,11.02l4.43-.8c1.68-.3,3.32.82,3.63,2.52.31,1.7-.82,3.32-2.52,3.63l-12.3,2.23c-.19.04-.38.05-.56.05-1.48,0-2.8-1.06-3.07-2.57l-2.24-12.3c-.31-1.7.82-3.32,2.52-3.63,1.69-.29,3.32.82,3.63,2.52l.93,5.1C16.89,6.32,28.03,1.16,39.91,1.16c22.4,0,40.62,18.23,40.62,40.62h0Z"/>
</svg>